<svg xmlns="http://www.w3.org/2000/svg" width="1200" height="630" viewBox="0 0 1200 630">
  <rect width="1200" height="630" fill="skyblue"/>
  <rect x="20" y="20" width="1160" height="590" rx="44" ry="44" fill="skyblue"/>
  <g transform="translate(101 194) scale(4.5) translate(10.173277 -121.577)">
    <path fill="#ffffff" d="m 48.539018,175.0339 c -0.409373,-0.40937 -0.649432,-0.95173 -0.649432,-1.46723 0,-0.95709 1.015241,-2.11667 1.853196,-2.11667 0.759581,0 2.015995,0.68184 2.215783,1.20248 0.322372,0.84009 0.156018,1.98086 -0.364813,2.50169 -0.760462,0.76046 -2.231939,0.70253 -3.054734,-0.12027 z m -6.391274,-2.51485 c -2.622469,-1.59902 -1.902178,-5.4159 1.129368,-5.98462 1.975059,-0.37053 3.598238,1.05459 3.598238,3.15918 0,1.45841 -0.362056,2.1645 -1.450046,2.82789 -1.073141,0.65434 -2.201763,0.6535 -3.27756,-0.002 z M 9.2548635,170.67237 c -12.2874693,-2.59329 -20.6885285,-14.39679 -19.2726915,-27.07815 0.3731826,-3.34252 1.3851855,-7.1286 2.3755636,-8.88739 2.558428,-4.54347 7.28115841,-9.05902 11.7599112,-11.24401 3.5417015,-1.72785 4.4099172,-1.88476 10.4344412,-1.88582 7.129547,-0.001 8.806461,0.4367 13.543378,3.53708 5.187291,3.39516 9.117693,8.69829 10.810319,14.58592 0.814294,2.83244 1.008232,8.37358 0.399024,11.40079 -0.534261,2.6548 -1.945905,6.29927 -2.595195,6.70008 -0.364144,0.22478 -1.376141,-0.0197 -4.689631,-1.13284 -2.323907,-0.78072 -4.355435,-1.57631 -4.514509,-1.76798 -0.215284,-0.2594 -0.06481,-0.97863 0.58859,-2.81333 0.815756,-2.29059 0.877815,-2.69866 0.877815,-5.77214 0,-2.76905 -0.09954,-3.59537 -0.611641,-5.07747 -1.602385,-4.63754 -5.622787,-8.55205 -10.041947,-9.77745 -4.81135,-1.33414 -9.5940326,0.0455 -13.4276351,3.87335 -6.2050266,6.19576 -6.1600645,15.59884 0.1043039,21.8134 4.5597108,4.52345 9.9687612,5.44221 16.1803302,2.74833 1.385754,-0.60098 1.684082,-0.64869 2.229906,-0.35657 0.714865,0.38258 6.618407,6.58268 6.438823,6.76226 -0.472152,0.47215 -4.78627,2.85967 -5.993453,3.3169 -4.129196,1.56395 -10.129347,1.99767 -14.5957025,1.05504 z m 23.9390715,-2.34575 c -2.029824,-1.27654 -2.836705,-3.17958 -2.261173,-5.33302 0.666737,-2.49471 2.897762,-3.73573 5.653403,-3.14475 3.851,0.82589 4.712933,5.81296 1.428494,8.26515 -1.0379,0.77491 -3.737318,0.89397 -4.820724,0.21262 z m 18.897838,-3.32731 c -2.275498,-0.81315 -4.085492,-2.43707 -5.04853,-4.52952 -0.600433,-1.30459 -0.609965,-1.47774 -0.688301,-12.50156 l -0.07944,-11.17864 h 4.511207 4.511207 l 4.11e-4,9.06197 c 4.5e-4,9.91956 0.04463,10.23117 1.613573,11.38033 1.614854,1.18278 4.677302,0.26467 6.1328,-1.8386 1.598357,-2.3097 2.042799,-5.16265 2.042799,-13.11306 v -5.50344 l 4.43177,0.0725 4.431771,0.0725 v 13.49375 13.49375 H 69.850001 65.74896 l -0.234013,-1.90882 -0.234012,-1.90882 -0.748134,1.03277 c -1.069973,1.47706 -3.282029,3.04874 -5.19164,3.68869 -1.916774,0.64236 -5.700776,0.7395 -7.249388,0.18611 z m 37.87875,-0.57265 c -4.184899,-1.16515 -7.41229,-4.25102 -8.713071,-8.33102 -0.493081,-1.54659 -0.748468,-5.27164 -0.52736,-7.69203 0.692771,-7.58354 6.226137,-12.93694 13.371849,-12.93694 3.54833,0 6.223329,0.91544 8.027229,2.74708 0.50932,0.51716 1.00182,0.94406 1.09443,0.94868 0.0926,0.005 0.24874,-0.52738 0.34694,-1.18222 l 0.17855,-1.19062 h 4.21712 4.21712 v 13.62604 13.62604 h -4.49791 -4.49792 v -1.45493 -1.45494 l -1.53473,1.19183 c -2.206888,1.7138 -4.077949,2.32118 -7.461103,2.422 -1.9036,0.0567 -3.232373,-0.0437 -4.221144,-0.31897 z m 10.370207,-7.84509 c 0.60625,-0.33533 1.49478,-1.12497 1.97452,-1.75474 l 0.87225,-1.14505 v -3.3792 c 0,-3.24886 -0.0281,-3.42075 -0.7276,-4.45646 -1.69328,-2.507 -4.524205,-3.54493 -7.741425,-2.83831 -2.833157,0.62227 -4.98661,3.64804 -5.013111,7.04382 -0.04424,5.6681 5.755599,9.2291 10.635366,6.52994 z m 89.36552,7.83277 c -6.49306,-1.72346 -9.81679,-6.93429 -9.43539,-14.79246 0.21935,-4.51944 1.48252,-7.58978 4.24253,-10.31218 2.69875,-2.66198 5.59564,-3.84303 9.42619,-3.84303 3.41067,0 5.75047,0.83751 7.99324,2.8611 l 0.98178,0.88583 0.16729,-0.74898 c 0.40537,-1.81491 0.0295,-1.67503 4.50156,-1.67503 h 4.08321 v 13.62604 13.62604 h -4.49792 -4.49791 v -1.486 -1.48599 l -1.04641,0.94537 c -2.09291,1.89081 -4.88944,2.83116 -8.33574,2.80295 -1.16998,-0.01 -2.78207,-0.19122 -3.58243,-0.40366 z m 9.97626,-7.60843 c 0.42174,-0.21809 1.26665,-0.93879 1.87756,-1.60156 l 1.11076,-1.20503 -9.9e-4,-3.64393 c -0.001,-4.06719 -0.19661,-4.68028 -1.90896,-5.98635 -1.4291,-1.09003 -2.6875,-1.49452 -4.62999,-1.48823 -2.97031,0.01 -4.96572,1.32997 -6.18902,4.09523 -0.71984,1.62719 -0.80515,4.53837 -0.17553,5.99005 0.51595,1.1896 2.07277,2.94141 3.27351,3.68351 1.6537,1.02204 4.82424,1.09665 6.64266,0.15631 z m -78.76793,-6.39028 v -13.62604 h 4.07419 4.07419 l 0.186,1.85208 c 0.1023,1.01864 0.26321,1.8488 0.35758,1.8448 0.0944,-0.004 0.45994,-0.39622 0.81237,-0.87159 0.97454,-1.31447 2.74657,-2.55596 4.72181,-3.3081 1.48754,-0.56643 2.24002,-0.68067 4.56484,-0.69303 2.62698,-0.014 2.88313,0.0342 4.55014,0.85483 1.08367,0.53349 2.17322,1.33174 2.81883,2.0652 1.86561,2.11944 1.88588,2.2761 1.88588,14.57481 v 10.93308 h -4.50158 -4.50158 l 0.021,-9.10779 c 0.0173,-7.50628 -0.0471,-9.23942 -0.36613,-9.85636 -0.66288,-1.28186 -1.40111,-1.75394 -2.94275,-1.88178 -2.41126,-0.19996 -4.18606,0.96236 -5.57031,3.64801 -1.02767,1.99382 -1.18224,3.34791 -1.18548,10.3849 l -0.003,6.81302 h -4.49791 -4.49792 z m 39.42292,3.43958 v -10.18646 h -2.11667 -2.11667 v -3.43958 -3.43958 h 2.11667 2.11667 v -5.95313 -5.95312 h 4.49791 4.49792 v 5.95312 5.95313 h 3.30729 3.30729 v 3.43958 3.43958 h -3.30729 -3.30729 v 10.18646 10.18646 h -4.49792 -4.49791 z"/>
  </g>
</svg>
