<?xml version="1.0" encoding="UTF-8" standalone="no"?>
<!-- Created with Inkscape (http://www.inkscape.org/) -->



<svg
   width="75.088264mm"
   height="65.29026mm"
   viewBox="-15 -15 105 95"
   version="1.1"
   id="svg1"
   xml:space="preserve"
   inkscape:version="1.4.2 (f4327f4, 2025-05-13)"
   sodipodi:docname="quanta.svg"
   inkscape:export-filename="quanta.svg"
   inkscape:export-xdpi="48.872726"
   inkscape:export-ydpi="48.872726"
   xmlns:inkscape="http://www.inkscape.org/namespaces/inkscape"
   xmlns:sodipodi="http://sodipodi.sourceforge.net/DTD/sodipodi-0.dtd"
   xmlns="http://www.w3.org/2000/svg"
   xmlns:svg="http://www.w3.org/2000/svg">
  <rect x="-15" y="-15" width="105" height="95" rx="20" ry="20" fill="skyblue" />

  
<sodipodi:namedview
     id="namedview1"
     pagecolor="#505050"
     bordercolor="#eeeeee"
     borderopacity="1"
     inkscape:showpageshadow="0"
     inkscape:pageopacity="0"
     inkscape:pagecheckerboard="0"
     inkscape:deskcolor="#505050"
     inkscape:document-units="mm"
     inkscape:zoom="0.50835205"
     inkscape:cx="564.56938"
     inkscape:cy="189.82908"
     inkscape:window-width="1920"
     inkscape:window-height="1009"
     inkscape:window-x="-8"
     inkscape:window-y="-8"
     inkscape:window-maximized="1"
     inkscape:current-layer="layer1" /><defs
     id="defs1" /><g
     inkscape:label="Layer 1"
     inkscape:groupmode="layer"
     id="layer1"
     transform="translate(-12.526654,-34.325707)"><path
       style="fill:#ffffff"
       d="m 83.243772,99.062138 c -0.84022,-0.84022 -0.74322,-2.96822 0.16797,-3.68496 2.42793,-1.90982 5.69475,1.53282 3.45299,3.63884 -0.82908,0.77888 -2.86231,0.80478 -3.62096,0.0461 z m -7.27605,-3.01933 c -2.83748,-1.26113 -3.07626,-5.23256 -0.40487,-6.733969 2.71161,-1.524009 5.65375,0.16427 5.6632,3.249689 0.009,2.88184 -2.64993,4.64359 -5.25833,3.48428 z M 37.115059,93.877148 C 20.209191,90.822718 9.4999331,74.54165 13.288989,57.65485 c 0.228564,-1.01865 0.461226,-2.07789 0.51703,-2.35387 1.733604,-8.57368 13.170638,-19.145072 22.03292,-20.365292 5.627885,-0.77489 8.583145,-0.80563 12.082955,-0.12567 0.7276,0.14137 1.7103,0.31008 2.183782,0.37492 3.31807,0.45439 9.03787,3.66583 12.75179,7.15961 9.673946,9.100572 12.422866,22.761002 6.947166,34.523102 -0.875746,1.88116 -0.24298,1.89834 -6.410866,-0.17402 -6.60219,-2.21828 -6.07865,-1.79137 -5.06913,-4.13356 8.02245,-18.61281 -12.972322,-35.524592 -27.401288,-22.07239 -15.187106,14.15903 0.641898,39.265848 19.199508,30.45288 2.59896,-1.23424 2.12775,-1.46393 6.55682,3.19608 l 3.92009,4.124499 -0.65039,0.49133 c -0.35772,0.27023 -1.06712,0.71988 -1.57644,0.999219 -0.50932,0.27935 -1.69995,0.93163 -2.64583,1.44952 -4.89172,2.67831 -12.524742,3.77575 -18.612047,2.67594 z m 28.137047,-2.89542 c -5.47382,-2.455719 -3.86229,-10.451058 2.10348,-10.436068 7.136516,0.0179 7.590946,10.413588 0.47076,10.769198 -1.08686,0.0543 -1.96359,-0.0592 -2.57424,-0.33313 z"
       id="path2" /></g></svg>




